<svg width="30" height="30" viewBox="0 0 30 30" fill="none" xmlns="http://www.w3.org/2000/svg">
<g clip-path="url(#clip0_9_89)">
<path fill-rule="evenodd" clip-rule="evenodd" d="M26.5425 26.4937C23.4403 28.7812 18.945 30 15.075 30C9.63753 30 4.76065 27.9938 1.06409 24.6534C0.78284 24.3909 1.03409 24.0328 1.38284 24.2372C5.3719 26.5594 10.3125 27.9562 15.3994 27.9562C19.073 27.9393 22.7071 27.1963 26.0925 25.77C26.6175 25.5469 27.0582 26.1141 26.5425 26.4947M27.8325 25.0181C27.4388 24.5119 25.2113 24.7791 24.2138 24.8962C23.9091 24.9337 23.8632 24.6684 24.1369 24.4781C25.9182 23.2313 28.8188 23.5903 29.1582 24.0094C29.4975 24.4284 29.07 27.3469 27.405 28.7381C27.1491 28.9519 26.9053 28.8384 27.03 28.5544C27.405 27.6206 28.2432 25.5263 27.8457 25.0181" fill="#FF9900"/>
<path fill-rule="evenodd" clip-rule="evenodd" d="M17.2781 12.9975C17.2781 14.5838 17.3184 15.9066 16.5169 17.3147C15.8606 18.4584 14.8294 19.1644 13.6997 19.1644C12.1369 19.1644 11.2209 17.9738 11.2209 16.2159C11.2209 12.7472 14.3297 12.1163 17.279 12.1163V12.9975M21.3853 22.92C21.1162 23.1609 20.7272 23.1778 20.4234 23.0175C19.0734 21.8953 18.8259 21.3741 18.0872 20.3034C15.854 22.5816 14.2678 23.2631 11.3765 23.2631C7.94717 23.2631 5.28467 21.15 5.28467 16.9191C5.28467 13.6153 7.07061 11.3653 9.62529 10.2656C11.835 9.2925 14.9222 9.12187 17.28 8.85938V8.34375C17.28 7.37625 17.355 6.23063 16.7831 5.39531C16.2909 4.64531 15.3394 4.33594 14.4984 4.33594C12.9469 4.33594 11.5669 5.13281 11.2294 6.78094C11.1609 7.15594 10.8919 7.50844 10.5197 7.52531L6.56248 7.08281C6.23061 7.00781 5.85936 6.73969 5.95592 6.23906C6.86998 1.44375 11.1984 0 15.0694 0C17.0503 0 19.6387 0.526875 21.2006 2.02688C23.1815 3.87656 22.9931 6.34406 22.9931 9.03V15.375C22.9931 17.2819 23.7834 18.1172 24.5278 19.1484C24.7856 19.5234 24.8428 19.9547 24.5109 20.2303C23.4602 21.1188 22.4201 22.0198 21.3909 22.9331L21.3853 22.9219" fill="white"/>
</g>
<defs>
<clipPath id="clip0_9_89">
<rect width="30" height="30" fill="white"/>
</clipPath>
</defs>
</svg>
