<svg width="43" height="30" viewBox="0 0 43 30" fill="none" xmlns="http://www.w3.org/2000/svg">
<path fill-rule="evenodd" clip-rule="evenodd" d="M7.07547 0V4H21.2264V6H5.3066C2.37585 6 0 8.68629 0 12V24C0 27.3137 2.37585 30 5.3066 30H26.533C29.3156 30 31.598 27.5784 31.8216 24.4975L42.4528 26V10L31.8216 11.5025C31.598 8.42157 29.3156 6 26.533 6H24.7642V2C24.7642 0.895431 23.9722 0 22.9953 0H7.07547ZM31.8396 15.5311V20.4689L38.9151 21.4689V14.5311L31.8396 15.5311ZM28.3019 12C28.3019 10.8954 27.5099 10 26.533 10H5.3066C4.32969 10 3.53774 10.8954 3.53774 12V24C3.53774 25.1046 4.32969 26 5.3066 26H26.533C27.5099 26 28.3019 25.1046 28.3019 24V12Z" fill="black"/>
</svg>
