<svg width="35" height="30" viewBox="0 0 35 30" fill="none" xmlns="http://www.w3.org/2000/svg">
<path d="M7.89474 0C7.02271 0 6.31579 0.706919 6.31579 1.57895V4.73684C6.31579 5.60887 7.02271 6.31579 7.89474 6.31579C8.76677 6.31579 9.47368 5.60887 9.47368 4.73684V1.57895C9.47368 0.706919 8.76677 0 7.89474 0Z" fill="black"/>
<path fill-rule="evenodd" clip-rule="evenodd" d="M18.9474 30C23.6416 30 27.5384 26.5859 28.2901 22.1053H28.4211C31.9092 22.1053 34.7368 19.2776 34.7368 15.7895C34.7368 12.3014 31.9092 9.47368 28.4211 9.47368V7.89474H0V20.5263C0 25.7585 4.24151 30 9.47368 30H18.9474ZM3.15789 11.0526V20.5263C3.15789 24.0144 5.98557 26.8421 9.47368 26.8421H18.9474C22.4355 26.8421 25.2632 24.0144 25.2632 20.5263V11.0526H3.15789ZM31.5789 15.7895C31.5789 17.5335 30.1651 18.9474 28.4211 18.9474V12.6316C30.1651 12.6316 31.5789 14.0454 31.5789 15.7895Z" fill="black"/>
<path d="M12.6316 1.57895C12.6316 0.706919 13.3385 0 14.2105 0C15.0826 0 15.7895 0.706919 15.7895 1.57895V4.73684C15.7895 5.60887 15.0826 6.31579 14.2105 6.31579C13.3385 6.31579 12.6316 5.60887 12.6316 4.73684V1.57895Z" fill="black"/>
<path d="M20.5263 0C19.6543 0 18.9474 0.706919 18.9474 1.57895V4.73684C18.9474 5.60887 19.6543 6.31579 20.5263 6.31579C21.3983 6.31579 22.1053 5.60887 22.1053 4.73684V1.57895C22.1053 0.706919 21.3983 0 20.5263 0Z" fill="black"/>
</svg>
