<svg width="20" height="21" viewBox="0 0 20 21" fill="none" xmlns="http://www.w3.org/2000/svg">
<path fill-rule="evenodd" clip-rule="evenodd" d="M12.5381 15.4402C10.1704 16.5443 7.45048 15.9704 5.71912 14.2063L19.7294 7.67318C19.5751 7.03213 19.3549 6.39691 19.0655 5.7762C16.7314 0.770804 10.7816 -1.39475 5.7762 0.939308C0.770804 3.27336 -1.39475 9.22317 0.939308 14.2286C3.27336 19.234 9.22317 21.3995 14.2286 19.0655C16.8807 17.8288 18.7355 15.577 19.5462 12.9885H15.2071C14.6131 14.0259 13.704 14.8966 12.5381 15.4402ZM7.46668 4.56454C5.09904 5.66859 3.7904 8.12098 4.02872 10.5811L14.2855 5.79827C12.5541 4.03438 9.83431 3.46049 7.46668 4.56454Z" fill="black"/>
</svg>
