<svg width="24" height="24" viewBox="0 0 24 24" fill="none" xmlns="http://www.w3.org/2000/svg">
<path fill-rule="evenodd" clip-rule="evenodd" d="M12.0123 5.57168L10.9253 4.48468C8.7774 2.3368 5.29499 2.3368 3.14711 4.48468C0.999223 6.63257 0.999223 10.115 3.14711 12.2629L11.9859 21.1017L11.9877 21.0999L12.0141 21.1262L20.8529 12.2874C23.0008 10.1395 23.0008 6.6571 20.8529 4.50922C18.705 2.36134 15.2226 2.36134 13.0747 4.50922L12.0123 5.57168ZM11.9877 18.2715L16.924 13.3352L18.3748 11.9342L18.3762 11.9356L19.4387 10.8732C20.8055 9.50635 20.8055 7.29027 19.4387 5.92343C18.0719 4.5566 15.8558 4.5566 14.4889 5.92343L12.0134 8.39903L12.0061 8.39179L12.005 8.39287L9.51107 5.8989C8.14423 4.53206 5.92815 4.53206 4.56132 5.8989C3.19449 7.26573 3.19449 9.48181 4.56132 10.8486L7.10075 13.3881L7.10254 13.3863L11.9877 18.2715Z" fill="black"/>
</svg>
